<svg xmlns="http://www.w3.org/2000/svg" style="width:0; height:0; visibility:hidden;">
    <symbol id="icon_experience" viewBox="0 0 140 130">
       <path fill="#8bc34a" d="M132.423,56.463c0,3.581-2.904,6.484-6.484,6.484c3.58,0,6.484,2.901,6.484,6.481
	c0-3.58,2.9-6.481,6.48-6.481C135.324,62.947,132.423,60.044,132.423,56.463z"/> <path fill="#8bc34a" d="M41.374,69.506c0,2.23-1.81,4.039-4.04,4.039c2.23,0,4.04,1.809,4.04,4.039c0-2.23,1.806-4.039,4.037-4.039
	C43.18,73.545,41.374,71.737,41.374,69.506z"/> <path fill="#8CC34B" d="M86.33,0c0,3.361-2.727,6.086-6.086,6.086c3.359,0,6.086,2.723,6.086,6.084c0-3.361,2.723-6.084,6.084-6.084
	C89.052,6.086,86.33,3.361,86.33,0z"/> <path fill="#8CC34B" d="M48.881,107.53c0,2.387-1.935,4.32-4.32,4.32c2.386,0,4.32,1.934,4.32,4.322c0-2.389,1.934-4.322,4.32-4.322
	C50.814,111.85,48.881,109.917,48.881,107.53z"/> <linearGradient id="SVGID_1_" gradientUnits="userSpaceOnUse" x1="0.248" y1="68.519" x2="14.1152" y2="68.519"> <stop offset="0" style="stop-color:#F79D2A"/> <stop offset="1" style="stop-color:#FFCD2E"/> </linearGradient> <path fill="#fbb42c" d="M7.183,61.585c0,3.83-3.106,6.935-6.935,6.935c3.828,0,6.935,3.104,6.935,6.934
	c0-3.83,3.104-6.934,6.933-6.934C10.286,68.52,7.183,65.415,7.183,61.585z"/> <linearGradient id="SVGID_2_" gradientUnits="userSpaceOnUse" x1="94.7378" y1="78.0054" x2="103.6479" y2="78.0054"> <stop offset="0" style="stop-color:#F79D2A"/> <stop offset="1" style="stop-color:#FFCD2E"/> </linearGradient> <path fill="#fbb42c" d="M99.195,73.549c0,2.461-1.996,4.457-4.457,4.457c2.461,0,4.457,1.992,4.457,4.455
	c0-2.463,1.994-4.455,4.453-4.455C101.189,78.006,99.195,76.01,99.195,73.549z"/> <linearGradient id="SVGID_3_" gradientUnits="userSpaceOnUse" x1="127.4878" y1="111.9966" x2="139.9995" y2="111.9966"> <stop offset="0" style="stop-color:#F79D2A"/> <stop offset="1" style="stop-color:#FFCD2E"/> </linearGradient> <path fill="#fbb42c" d="M133.746,105.741c0,3.455-2.803,6.256-6.258,6.256c3.455,0,6.258,2.801,6.258,6.256
	c0-3.455,2.799-6.256,6.254-6.256C136.544,111.997,133.746,109.196,133.746,105.741z"/> <linearGradient id="SVGID_4_" gradientUnits="userSpaceOnUse" x1="104.4819" y1="19.3169" x2="112.2417" y2="19.3169"> <stop offset="0" style="stop-color:#F79D2A"/> <stop offset="1" style="stop-color:#FFCD2E"/> </linearGradient> <path fill="#fbb42c" d="M108.361,15.438c0,2.144-1.736,3.879-3.879,3.879c2.143,0,3.879,1.736,3.879,3.88
	c0-2.144,1.736-3.88,3.881-3.88C110.097,19.316,108.361,17.581,108.361,15.438z"/> <linearGradient id="SVGID_5_" gradientUnits="userSpaceOnUse" x1="13.3145" y1="110.5825" x2="21.3496" y2="110.5825"> <stop offset="0" style="stop-color:#F79D2A"/> <stop offset="1" style="stop-color:#FFCD2E"/> </linearGradient> <path fill="#fbb42c" d="M17.332,106.565c0,2.219-1.8,4.018-4.018,4.018c2.218,0,4.018,1.797,4.018,4.018
	c0-2.221,1.798-4.018,4.018-4.018C19.13,110.583,17.332,108.784,17.332,106.565z"/> <linearGradient id="SVGID_6_" gradientUnits="userSpaceOnUse" x1="64.6445" y1="125.6792" x2="73.2866" y2="125.6792"> <stop offset="0" style="stop-color:#F79D2A"/> <stop offset="1" style="stop-color:#FFCD2E"/> </linearGradient> <path fill="#fbb42c" d="M68.966,121.358c0,2.387-1.936,4.32-4.321,4.32c2.386,0,4.321,1.934,4.321,4.322
	c0-2.389,1.934-4.322,4.321-4.322C70.9,125.678,68.966,123.745,68.966,121.358z"/> <linearGradient id="SVGID_7_" gradientUnits="userSpaceOnUse" x1="0" y1="16.127" x2="7.9824" y2="16.127"> <stop offset="0" style="stop-color:#F79D2A"/> <stop offset="1" style="stop-color:#FFCD2E"/> </linearGradient> <path fill="#fbb42c" d="M3.992,12.136c0,2.205-1.788,3.991-3.992,3.991c2.204,0,3.992,1.787,3.992,3.991
	c0-2.204,1.785-3.991,3.99-3.991C5.777,16.127,3.992,14.341,3.992,12.136z"/> <g> <linearGradient id="SVGID_8_" gradientUnits="userSpaceOnUse" x1="60.3018" y1="89.1001" x2="77.0874" y2="89.1001"> <stop offset="0" style="stop-color:#76767D"/> <stop offset="1" style="stop-color:#A4A8A8"/> </linearGradient> <path fill="#8b8d91" stroke="#444444" stroke-width="2" stroke-miterlimit="10" d="M75.628,85.178H61.76
		c-0.806,0-1.458,1.482-1.458,2.289c0,0.805,0.652,2.287,1.458,2.287h4.647l-5.091,0.949c-0.764,0.248-1.185,0.719-0.938,1.484
		c0.2,0.617,0.772,0.834,1.39,0.834c0.147,0,0.299-0.113,0.449-0.158l13.862-4.541c0.682-0.221,1.102-1.057,0.99-1.766
		C76.955,85.85,76.345,85.178,75.628,85.178z"/> <linearGradient id="SVGID_9_" gradientUnits="userSpaceOnUse" x1="60.3008" y1="95.5298" x2="77.0698" y2="95.5298"> <stop offset="0" style="stop-color:#76767D"/> <stop offset="1" style="stop-color:#A4A8A8"/> </linearGradient> <path fill="#8b8d91" stroke="#444444" stroke-width="2" stroke-miterlimit="10" d="M75.611,95.477h-4.635l5.086-2.299
		c0.766-0.246,1.186-1.393,0.936-2.16c-0.25-0.766-1.068-1.348-1.838-1.1l-13.851,4.414c-0.683,0.225-1.102,1.203-0.99,1.912
		c0.111,0.707,0.724,1.521,1.441,1.521h1.259l2.204,3.434h6.873l2.238-3.434h1.277c0.807,0,1.457-0.34,1.457-1.145
		C77.068,95.815,76.417,95.477,75.611,95.477z"/> <linearGradient id="SVGID_10_" gradientUnits="userSpaceOnUse" x1="49.0156" y1="60.0776" x2="88.3862" y2="60.0776"> <stop offset="0" style="stop-color:#F79D2A"/> <stop offset="1" style="stop-color:#FFCD2E"/> </linearGradient> <path fill="#fab12c" stroke="#515151" stroke-width="2" stroke-miterlimit="10" d="M68.696,36.465
		c-10.862,0.013-19.681,8.819-19.681,19.685c0,5.222,2.656,9.73,5.348,13.771c5.945,8.932,2.567,13.77,5.999,13.77h8.323h8.367
		c3.436,0,0.049-4.838,5.994-13.77c2.691-4.041,5.34-8.409,5.34-13.627C88.388,45.425,79.56,36.478,68.696,36.465z"/> <path fill="#FFFFFF" d="M77.695,62.196c-0.041,0.105-4.25,10.583-3.914,19.937c0.02,0.574-0.305,1.061-0.721,1.088
		c-0.016,0.004-0.027,0.004-0.041,0.004c-0.4,0-0.738-0.434-0.756-0.99c-0.281-7.852,2.324-16.135,3.523-19.506h-2.754
		c-0.361,0-0.67-0.352-0.74-0.826l-1.053,3.182c-0.146,0.435-0.492,0.682-0.831,0.593c-0.342-0.084-0.598-0.477-0.619-0.956
		l-0.086-1.834l-0.739,2.561c-0.136,0.463-0.487,0.739-0.851,0.637c-0.356-0.094-0.614-0.522-0.614-1.022v-1.937l-0.686,2.129
		c-0.145,0.443-0.497,0.699-0.84,0.601c-0.346-0.09-0.601-0.501-0.612-0.984l-0.081-3.23l-0.314,0.633
		c-0.142,0.283-0.378,0.458-0.63,0.458H61.69c2.894,7.278,3.35,18.875,3.368,19.401c0.021,0.576-0.303,1.063-0.72,1.092
		c-0.415,0.063-0.776-0.41-0.796-0.986c-0.006-0.131-0.528-13.426-3.829-19.951c-0.163-0.321-0.182-0.734-0.049-1.077
		c0.132-0.343,0.388-0.556,0.672-0.556h3.598l1.392-2.822c0.184-0.372,0.522-0.54,0.838-0.416c0.316,0.125,0.536,0.512,0.549,0.962
		l0.049,1.886l0.804-2.494c0.145-0.447,0.498-0.695,0.851-0.602c0.353,0.104,0.602,0.529,0.602,1.021v1.435l0.526-1.815
		c0.133-0.451,0.479-0.718,0.825-0.645c0.35,0.078,0.619,0.476,0.638,0.964l0.105,2.304l0.883-2.67
		c0.141-0.422,0.471-0.66,0.805-0.598c0.334,0.068,0.596,0.431,0.639,0.891l0.262,2.603h3.338c0.268,0,0.516,0.197,0.652,0.515
		C77.826,61.481,77.828,61.872,77.695,62.196z"/> <path opacity="0.3" fill="none" stroke="#FFFFFF" stroke-width="3" stroke-linecap="round" stroke-miterlimit="10" d="
		M71.291,41.375c-9.589,0-17.365,7.848-17.365,17.528"/> </g> <g opacity="0.7"> <linearGradient id="SVGID_11_" gradientUnits="userSpaceOnUse" x1="62.6475" y1="152.0425" x2="71.4087" y2="152.0425" gradientTransform="matrix(0.8645 0.5026 -0.5026 0.8645 127.444 -107.8815)"> <stop offset="0" style="stop-color:#76767D"/> <stop offset="1" style="stop-color:#A4A8A8"/> </linearGradient> <path fill="#a8aaac" stroke="#444444" stroke-miterlimit="10" d="M113.13,57.296l-6.256-3.638
		c-0.365-0.213-1.049,0.286-1.26,0.649c-0.211,0.364-0.307,1.203,0.059,1.415l2.096,1.22l-2.547-0.908
		c-0.408-0.088-0.723,0.014-0.811,0.425c-0.072,0.33,0.129,0.578,0.406,0.74c0.068,0.039,0.166,0.027,0.244,0.046l7.447,1.588
		c0.367,0.079,0.773-0.188,0.91-0.536C113.554,57.947,113.455,57.483,113.13,57.296z"/> <linearGradient id="SVGID_12_" gradientUnits="userSpaceOnUse" x1="62.646" y1="155.3989" x2="71.3999" y2="155.3989" gradientTransform="matrix(0.8645 0.5026 -0.5026 0.8645 127.444 -107.8815)"> <stop offset="0" style="stop-color:#76767D"/> <stop offset="1" style="stop-color:#A4A8A8"/> </linearGradient> <path fill="#a8aaac" stroke="#444444" stroke-miterlimit="10" d="M110.421,61.938l-2.09-1.215l2.896,0.297
		c0.41,0.089,0.9-0.317,0.99-0.729c0.086-0.411-0.131-0.89-0.541-0.979l-7.41-1.642c-0.365-0.078-0.813,0.253-0.947,0.602
		s-0.072,0.878,0.252,1.065l0.566,0.33l0.094,2.127l3.102,1.804l1.91-0.962l0.576,0.334c0.365,0.212,0.748,0.229,0.959-0.135
		C110.99,62.474,110.785,62.149,110.421,61.938z"/> <linearGradient id="SVGID_13_" gradientUnits="userSpaceOnUse" x1="56.7549" y1="136.8931" x2="77.3062" y2="136.8931" gradientTransform="matrix(0.8645 0.5026 -0.5026 0.8645 127.444 -107.8815)"> <stop offset="0" style="stop-color:#F79D2A"/> <stop offset="1" style="stop-color:#FFCD2E"/> </linearGradient> <path fill="#fdd26c" stroke="#515151" stroke-width="2" stroke-miterlimit="10" d="M122.781,33.496
		c-4.904-2.844-11.193-1.183-14.043,3.719c-1.369,2.356-1.354,5.089-1.199,7.618c0.34,5.589-2.455,6.886-0.904,7.787l3.756,2.184
		l3.773,2.193c1.551,0.901,1.291-2.171,6.316-4.64c2.275-1.117,4.617-2.393,5.986-4.749
		C129.318,42.705,127.681,36.352,122.781,33.496z"/> <path fill="#FFFFFF" d="M120.093,47.468c-0.047,0.036-4.693,3.661-6.998,7.97c-0.141,0.265-0.416,0.397-0.611,0.302
		c-0.008-0.002-0.012-0.005-0.018-0.009c-0.182-0.105-0.219-0.391-0.082-0.646c1.934-3.616,5.281-6.671,6.707-7.877l-1.242-0.723
		c-0.162-0.095-0.211-0.335-0.117-0.566l-1.311,1.158c-0.18,0.158-0.4,0.179-0.529,0.051c-0.133-0.129-0.145-0.373-0.029-0.596
		l0.443-0.849l-1.006,0.962c-0.184,0.174-0.414,0.205-0.551,0.063c-0.137-0.136-0.141-0.396-0.01-0.621l0.508-0.874l-0.867,0.781
		c-0.182,0.161-0.408,0.184-0.535,0.051c-0.133-0.132-0.141-0.384-0.02-0.604l0.813-1.479l-0.311,0.203
		c-0.137,0.091-0.291,0.108-0.404,0.042l-1.193-0.694c-0.604,4.043-3.439,9.396-3.57,9.638c-0.143,0.266-0.414,0.399-0.611,0.304
		c-0.203-0.081-0.242-0.39-0.1-0.653c0.031-0.061,3.283-6.197,3.506-10.008c0.012-0.188,0.111-0.378,0.26-0.498
		c0.15-0.12,0.322-0.149,0.449-0.075l1.623,0.944l1.369-0.909c0.18-0.119,0.377-0.107,0.486,0.032
		c0.109,0.139,0.109,0.372-0.004,0.578l-0.473,0.864l1.018-0.915c0.182-0.164,0.408-0.184,0.543-0.049
		c0.131,0.14,0.131,0.397,0.002,0.618l-0.377,0.647l0.713-0.682c0.18-0.168,0.406-0.197,0.543-0.073
		c0.137,0.127,0.154,0.376,0.035,0.602l-0.557,1.066l1.098-0.973c0.176-0.152,0.387-0.174,0.521-0.058
		c0.133,0.118,0.156,0.352,0.053,0.569l-0.564,1.243l1.508,0.875c0.119,0.07,0.18,0.225,0.158,0.404
		C120.339,47.179,120.238,47.355,120.093,47.468z"/> <path opacity="0.3" fill="none" stroke="#FFFFFF" stroke-width="3" stroke-linecap="round" stroke-miterlimit="10" d="
		M122.666,36.393c-4.328-2.516-9.895-1.015-12.436,3.354"/> </g> <g opacity="0.7"> <linearGradient id="SVGID_14_" gradientUnits="userSpaceOnUse" x1="299.2515" y1="64.7349" x2="305.4604" y2="64.7349" gradientTransform="matrix(0.2805 -0.9598 0.9598 0.2805 -112.4078 367.4668)"> <stop offset="0" style="stop-color:#76767D"/> <stop offset="1" style="stop-color:#A4A8A8"/> </linearGradient> <path fill="#a0a1a2" stroke="#444444" stroke-miterlimit="10" d="M33.862,92.555l-1.439,4.924
		c-0.084,0.287,0.376,0.672,0.661,0.754c0.287,0.086,0.88,0.008,0.964-0.279l0.483-1.65l-0.192,1.908
		c0.009,0.297,0.132,0.494,0.43,0.484c0.24-0.006,0.376-0.188,0.441-0.404c0.015-0.055-0.011-0.119-0.011-0.176l-0.174-5.395
		c-0.007-0.266-0.26-0.502-0.524-0.535C34.238,92.153,33.937,92.301,33.862,92.555z"/> <linearGradient id="SVGID_15_" gradientUnits="userSpaceOnUse" x1="299.2495" y1="67.1138" x2="305.4536" y2="67.1138" gradientTransform="matrix(0.2805 -0.9598 0.9598 0.2805 -112.4078 367.4668)"> <stop offset="0" style="stop-color:#76767D"/> <stop offset="1" style="stop-color:#A4A8A8"/> </linearGradient> <path fill="#a0a1a2" stroke="#444444" stroke-miterlimit="10" d="M37.516,93.629l-0.479,1.646l-0.289-2.043
		c-0.008-0.299-0.372-0.566-0.668-0.559c-0.3,0.01-0.591,0.24-0.581,0.539l0.13,5.377c0.007,0.264,0.312,0.516,0.574,0.549
		c0.264,0.033,0.615-0.1,0.69-0.354l0.131-0.447l1.447-0.426l0.715-2.441l-0.988-1.15l0.132-0.453
		c0.084-0.285,0.031-0.553-0.254-0.637C37.788,93.147,37.601,93.344,37.516,93.629z"/> <linearGradient id="SVGID_16_" gradientUnits="userSpaceOnUse" x1="295.0767" y1="53.9985" x2="309.6401" y2="53.9985" gradientTransform="matrix(0.2805 -0.9598 0.9598 0.2805 -112.4078 367.4668)"> <stop offset="0" style="stop-color:#F79D2A"/> <stop offset="1" style="stop-color:#FFCD2E"/> </linearGradient> <path fill="#fdd06c" stroke="#515151" stroke-width="2" stroke-miterlimit="10" d="M15.847,89.963
		c-1.122,3.857,1.09,7.902,4.947,9.027c1.854,0.543,3.73,0.066,5.444-0.469c3.787-1.184,5.155,0.52,5.511-0.701l0.864-2.955
		l0.868-2.969c0.357-1.221-1.714-0.521-4.266-3.559c-1.156-1.375-2.433-2.77-4.285-3.311C21.072,83.899,16.979,86.106,15.847,89.963
		z"/> <path fill="#FFFFFF" d="M25.917,89.438c0.032,0.025,3.317,2.605,6.673,3.459c0.206,0.051,0.345,0.217,0.313,0.367
		c-0.001,0.008-0.002,0.012-0.004,0.016c-0.042,0.143-0.23,0.215-0.431,0.164c-2.815-0.715-5.487-2.5-6.56-3.273l-0.285,0.977
		c-0.038,0.129-0.195,0.203-0.37,0.178l1.02,0.703c0.14,0.098,0.191,0.246,0.125,0.357c-0.067,0.113-0.232,0.164-0.404,0.119
		l-0.659-0.158l0.833,0.527c0.149,0.096,0.211,0.25,0.137,0.369c-0.071,0.117-0.25,0.164-0.426,0.111l-0.688-0.201l0.686,0.467
		c0.142,0.094,0.194,0.246,0.126,0.357c-0.068,0.113-0.24,0.162-0.413,0.115l-1.156-0.305l0.193,0.178
		c0.086,0.078,0.124,0.182,0.097,0.27l-0.274,0.939c2.884-0.271,7.049,0.77,7.237,0.818c0.206,0.053,0.347,0.217,0.313,0.369
		c-0.022,0.152-0.228,0.232-0.434,0.178c-0.046-0.01-4.821-1.203-7.481-0.709c-0.129,0.023-0.278-0.012-0.387-0.094
		c-0.107-0.082-0.156-0.197-0.127-0.297l0.372-1.277l-0.856-0.787c-0.113-0.104-0.139-0.24-0.062-0.34
		c0.077-0.098,0.238-0.137,0.398-0.096l0.676,0.178l-0.803-0.545c-0.145-0.096-0.195-0.248-0.125-0.363
		c0.073-0.113,0.249-0.16,0.423-0.107l0.511,0.148l-0.59-0.373c-0.146-0.096-0.205-0.246-0.143-0.361
		c0.063-0.117,0.231-0.17,0.408-0.127l0.828,0.201L23.751,91c-0.134-0.094-0.186-0.234-0.127-0.348
		c0.058-0.111,0.214-0.168,0.382-0.133l0.95,0.176l0.347-1.186c0.026-0.094,0.123-0.164,0.251-0.178
		C25.677,89.317,25.816,89.356,25.917,89.438z"/> <path opacity="0.3" fill="none" stroke="#FFFFFF" stroke-width="3" stroke-linecap="round" stroke-miterlimit="10" d="
		M17.86,89.549c-0.996,3.404,0.984,6.98,4.421,7.986"/> </g> <linearGradient id="SVGID_17_" gradientUnits="userSpaceOnUse" x1="41.4404" y1="291.7319" x2="53.1104" y2="291.7319" gradientTransform="matrix(0 1 -1 0 360.4336 -23.375)"> <stop offset="0" style="stop-color:#F79D2A"/> <stop offset="1" style="stop-color:#FFCD2E"/> </linearGradient> <path opacity="0.5" fill="#fcd695" d="M68.701,29.735c-0.706,0-1.279-0.573-1.279-1.28v-9.109
	c0-0.708,0.573-1.28,1.279-1.28l0,0c0.708,0,1.28,0.572,1.28,1.28v9.109C69.981,29.162,69.409,29.735,68.701,29.735L68.701,29.735z"/> <linearGradient id="SVGID_18_" gradientUnits="userSpaceOnUse" x1="37.7012" y1="258.4468" x2="49.3701" y2="258.4468" gradientTransform="matrix(-0.5721 0.8202 -0.8202 -0.5721 321.5862 142.5251)"> <stop offset="0" style="stop-color:#F79D2A"/> <stop offset="1" style="stop-color:#FFCD2E"/> </linearGradient> <path opacity="0.5" fill="#fcd695" d="M81.361,35.16c-0.58-0.404-0.721-1.203-0.316-1.782l5.211-7.472
	c0.404-0.58,1.203-0.723,1.781-0.317l0,0c0.58,0.404,0.723,1.202,0.316,1.781l-5.209,7.473
	C82.738,35.421,81.941,35.564,81.361,35.16L81.361,35.16z"/> <linearGradient id="SVGID_19_" gradientUnits="userSpaceOnUse" x1="22.7539" y1="237.5298" x2="34.4224" y2="237.5298" gradientTransform="matrix(-0.8856 0.4645 -0.4645 -0.8856 230.3558 237.6262)"> <stop offset="0" style="stop-color:#F79D2A"/> <stop offset="1" style="stop-color:#FFCD2E"/> </linearGradient> <path opacity="0.5" fill="#fcd695" d="M89.539,43.259c-0.33-0.626-0.088-1.399,0.537-1.729l8.068-4.23
	c0.627-0.329,1.402-0.087,1.729,0.539l0,0c0.328,0.625,0.088,1.399-0.541,1.727l-8.064,4.233
	C90.64,44.126,89.867,43.885,89.539,43.259L89.539,43.259z"/> <linearGradient id="SVGID_20_" gradientUnits="userSpaceOnUse" x1="48.2012" y1="273.5034" x2="59.8711" y2="273.5034" gradientTransform="matrix(0.5721 0.8202 0.8202 -0.5721 -202.8264 142.5251)"> <stop offset="0" style="stop-color:#F79D2A"/> <stop offset="1" style="stop-color:#FFCD2E"/> </linearGradient> <path opacity="0.5" fill="#fcd695" d="M55.755,35.16c0.58-0.404,0.722-1.203,0.318-1.782l-5.212-7.472
	c-0.404-0.58-1.203-0.723-1.783-0.317l0,0c-0.579,0.404-0.722,1.202-0.316,1.781l5.211,7.473
	C54.378,35.421,55.176,35.564,55.755,35.16L55.755,35.16z"/> <linearGradient id="SVGID_21_" gradientUnits="userSpaceOnUse" x1="38.9634" y1="246.0317" x2="50.6313" y2="246.0317" gradientTransform="matrix(0.8856 0.4645 0.4645 -0.8856 -111.596 237.6262)"> <stop offset="0" style="stop-color:#F79D2A"/> <stop offset="1" style="stop-color:#FFCD2E"/> </linearGradient> <path opacity="0.5" fill="#fcd695" d="M47.525,43.259c0.329-0.626,0.087-1.399-0.538-1.729L38.92,37.3
	c-0.627-0.329-1.402-0.087-1.729,0.539l0,0c-0.329,0.625-0.088,1.399,0.539,1.727l8.066,4.233
	C46.424,44.126,47.197,43.885,47.525,43.259L47.525,43.259z"/> <path fill="#E8E8E8" stroke="#444444" stroke-miterlimit="10" d="M117.433,115.153"/> <g> <path fill="#E8E8E8" stroke="#444444" stroke-width="2" stroke-miterlimit="10" d="M84.835,118.928l11.346-26.977
		c0,0,20.242,5.607,28.803-5.539c0.432-0.561-0.586,3.34-0.586,3.34l-9.191,24.885c0,0-3.582,13.047-30.221,3.936"/> <linearGradient id="SVGID_22_" gradientUnits="userSpaceOnUse" x1="63.1226" y1="209.6567" x2="84.2339" y2="209.6567" gradientTransform="matrix(0.9364 0.351 -0.351 0.9364 110.7625 -119.6103)"> <stop offset="0" style="stop-color:#F79D2A"/> <stop offset="1" style="stop-color:#FFCD2E"/> </linearGradient> <path fill="#faaf2b" stroke="#faaf2b" stroke-width="3" stroke-linecap="round" stroke-miterlimit="10" d="M115.812,102.635
		c0,0-6.506,3.209-19.295-0.125"/> <linearGradient id="SVGID_23_" gradientUnits="userSpaceOnUse" x1="70.8315" y1="201.0991" x2="90.728" y2="201.0991" gradientTransform="matrix(0.9574 0.2888 -0.2888 0.9574 87.5032 -109.4051)"> <stop offset="0" style="stop-color:#56AF5E"/> <stop offset="1" style="stop-color:#C1D24D"/> </linearGradient> <path fill="#64b45c" stroke="#64b45c" stroke-width="3" stroke-linecap="round" stroke-miterlimit="10" d="M115.783,105.813
		c0,0-5.055,3.775-18.037,1.289"/> <linearGradient id="SVGID_24_" gradientUnits="userSpaceOnUse" x1="70.8657" y1="205.3687" x2="90.5278" y2="205.3687" gradientTransform="matrix(0.9574 0.2888 -0.2888 0.9574 87.5032 -109.4051)"> <stop offset="0" style="stop-color:#56AF5E"/> <stop offset="1" style="stop-color:#C1D24D"/> </linearGradient> <path fill="#64b45c" stroke="#64b45c" stroke-width="3" stroke-linecap="round" stroke-miterlimit="10" d="M114.32,109.969
		c0,0-3.816,3.674-17.736,1.104"/> <linearGradient id="SVGID_25_" gradientUnits="userSpaceOnUse" x1="60.7866" y1="229.6099" x2="84.0229" y2="229.6099" gradientTransform="matrix(0.9223 0.3864 -0.3864 0.9223 124.5775 -125.6583)"> <stop offset="0" style="stop-color:#F79D2A"/> <stop offset="1" style="stop-color:#FFCD2E"/> </linearGradient> <path fill="#faaf2b" stroke="#faaf2b" stroke-width="3" stroke-linecap="round" stroke-miterlimit="10" d="M113.482,114.379
		c0,0-6.711,3.512-21.695-0.582"/> <path fill="#E8E8E8" stroke="#444444" stroke-miterlimit="10" d="M91.687,102.577"/> <path fill="#434347" d="M94.13,96.182l2.051-4.23c0,0,20.242,5.607,28.803-5.539c0.432-0.561-0.586,3.34-0.586,3.34
		s-1.352,14.199-29.938,6.764"/> <linearGradient id="SVGID_26_" gradientUnits="userSpaceOnUse" x1="223.8804" y1="64.3989" x2="261.6753" y2="64.3989" gradientTransform="matrix(0.7073 -0.707 0.707 0.7073 -98.3342 222.8015)"> <stop offset="0.1237" style="stop-color:#9CA5AA"/> <stop offset="1" style="stop-color:#CFD7DB"/> </linearGradient> <path fill="#b0b8bd" stroke="#565656" stroke-width="2" stroke-miterlimit="10" d="M127.488,83.116
		c-0.082-5.096-2.975-7.527-2.975-7.527s-13.365,31.719-13.26,31.832c4.549,5.063,2.053,10.41,2.053,10.41L127.488,83.116z"/> <ellipse transform="matrix(0.9054 0.4245 -0.4245 0.9054 49.3336 -32.5117)" fill="#EC4643" cx="97.641" cy="94.476" rx="0.95" ry="1.038"/> <path fill="#FFCD2E" d="M101.046,95.288c-0.201,0.535-0.762,0.818-1.252,0.635c-0.494-0.182-0.729-0.766-0.529-1.301
		c0.201-0.537,0.764-0.824,1.254-0.637C101.009,94.167,101.248,94.752,101.046,95.288z"/> <ellipse transform="matrix(0.9459 0.3245 -0.3245 0.9459 36.5275 -28.1431)" fill="#C2E046" cx="102.635" cy="95.436" rx="0.951" ry="1.037"/> </g> <g> <path fill="#E8E8E8" stroke="#444444" stroke-width="2" stroke-miterlimit="10" d="M42.474,1.138l-0.858,29.055
		c0,0-20.762,2.049-24.704,15.439c-0.201,0.676-0.653-3.301-0.653-3.301l-0.391-26.349c0,0-1.349-13.368,26.594-14.461"/> <linearGradient id="SVGID_27_" gradientUnits="userSpaceOnUse" x1="239.2144" y1="372.3208" x2="258.4429" y2="372.3208" gradientTransform="matrix(-0.9882 0.1531 -0.1531 -0.9882 332.3948 359.209)"> <stop offset="0" style="stop-color:#F79D2A"/> <stop offset="1" style="stop-color:#FFCD2E"/> </linearGradient> <path fill="#fcbe2d" stroke="#fcbe2d" stroke-width="3" stroke-linecap="round" stroke-miterlimit="10" d="M21.866,33.104
		c0,0,2.572-4.111,15.268-7.45"/> <linearGradient id="SVGID_28_" gradientUnits="userSpaceOnUse" x1="19.6025" y1="24.9971" x2="36.2207" y2="24.9971"> <stop offset="0" style="stop-color:#56AF5E"/> <stop offset="1" style="stop-color:#C1D24D"/> </linearGradient> <path fill="#7fbc57" stroke="#7fbc57" stroke-width="3" stroke-linecap="round" stroke-miterlimit="10" d="M21.103,28.996
		c0,0,1.17-3.828,13.618-7.998"/> <linearGradient id="SVGID_29_" gradientUnits="userSpaceOnUse" x1="18.8447" y1="20.5898" x2="36.4756" y2="20.5898"> <stop offset="0" style="stop-color:#56AF5E"/> <stop offset="1" style="stop-color:#C1D24D"/> </linearGradient> <path fill="#7fbc57" stroke="#7fbc57" stroke-width="3" stroke-linecap="round" stroke-miterlimit="10" d="M20.345,24.54
		c0,0,6.055-6.603,14.631-7.9"/> <linearGradient id="SVGID_30_" gradientUnits="userSpaceOnUse" x1="241.1011" y1="386.3345" x2="263.4312" y2="386.3345" gradientTransform="matrix(-0.9933 0.1153 -0.1153 -0.9933 323.2754 370.6761)"> <stop offset="0" style="stop-color:#F79D2A"/> <stop offset="1" style="stop-color:#FFCD2E"/> </linearGradient> <path fill="#fdc02d" stroke="#fdc02d" stroke-width="3" stroke-linecap="round" stroke-miterlimit="10" d="M18.925,20.316
		c0,0,8.095-7.738,18.463-8.587"/> <path fill="#E8E8E8" stroke="#444444" stroke-miterlimit="10" d="M41.976,18.741"/> <path fill="#434347" d="M42.001,1.326l-0.34,6.468c0,0-20.808,0.234-24.75,13.626c-0.201,0.675-0.653-3.303-0.653-3.303
		S12.428,4.477,41.576,1.138"/> <linearGradient id="SVGID_31_" gradientUnits="userSpaceOnUse" x1="172.5522" y1="304.1079" x2="207.5464" y2="304.1079" gradientTransform="matrix(-0.405 0.9143 -0.9143 -0.405 373.6196 -15.3906)"> <stop offset="0.1237" style="stop-color:#9CA5AA"/> <stop offset="1" style="stop-color:#CFD7DB"/> </linearGradient> <path fill="#b8c0c5" stroke="#565656" stroke-width="2" stroke-miterlimit="10" d="M15.771,49.586
		c1.898,4.69,5.447,5.908,5.447,5.908s1.033-34.173,0.896-34.241c-6.026-3.061-6.122-6.339-6.122-6.339L15.771,49.586z"/> </g> 
    </symbol>
    <symbol id="icon_git" viewBox="0 0 30 29.263">
       <g> <path d="M19.746,29.238c-0.762,0.137-1.016-0.332-1.016-0.723c0-0.488,0-2.109,0-4.121
		c0-1.406-0.469-2.305-1.016-2.773c3.34-0.371,6.855-1.641,6.855-7.402c0-1.641-0.586-2.988-1.543-4.023
		c0.156-0.391,0.664-1.914-0.156-3.984c-1.25-0.391-4.121,1.543-4.121,1.543C17.559,7.422,16.27,7.246,15,7.246
		s-2.559,0.176-3.75,0.508c0,0-2.871-1.934-4.141-1.543c-0.801,2.07-0.293,3.594-0.137,3.984C6.016,11.23,5.43,12.578,5.43,14.219
		c0,5.742,3.496,7.031,6.836,7.402c-0.43,0.391-0.82,1.035-0.957,2.012c-0.859,0.391-3.047,1.055-4.355-1.25
		c-0.82-1.426-2.305-1.543-2.305-1.543c-1.465-0.02-0.098,0.918-0.098,0.918c0.977,0.449,1.66,2.188,1.66,2.188
		c0.879,2.676,5.059,1.777,5.059,1.777c0,1.25,0.02,2.441,0.02,2.793c0,0.391-0.273,0.859-1.035,0.723C4.297,27.246,0,21.621,0,15
		C0,6.719,6.719,0,15,0s15,6.719,15,15C30,21.621,25.703,27.246,19.746,29.238z"/> </g> 
    </symbol>
    <symbol id="icon_hello" viewBox="0 0 140 138.526">
       <path fill="#8bc34a" d="M83.081,0c0,3.513-2.85,6.36-6.361,6.36c3.512,0,6.361,2.846,6.361,6.358c0-3.513,2.846-6.358,6.357-6.358
	C85.926,6.36,83.081,3.513,83.081,0z"/> <path fill="#8bc34a" d="M9.117,95.573c0,3.514-2.849,6.359-6.36,6.359c3.512,0,6.36,2.846,6.36,6.359
	c0-3.514,2.846-6.359,6.357-6.359C11.963,101.932,9.117,99.086,9.117,95.573z"/> <path fill="#8bc34a" d="M31.432,33.578c0,2.494-2.021,4.515-4.515,4.515c2.493,0,4.515,2.021,4.515,4.517
	c0-2.495,2.021-4.517,4.515-4.517C33.453,38.093,31.432,36.072,31.432,33.578z"/> <path fill="#8bc34a" d="M66.806,116.893c0,2.494-2.021,4.514-4.515,4.514c2.493,0,4.515,2.021,4.515,4.518
	c0-2.496,2.021-4.518,4.515-4.518C68.827,121.407,66.806,119.387,66.806,116.893z"/> <path fill="#8bc34a" d="M135.485,104.258c0,2.494-2.021,4.514-4.514,4.514c2.492,0,4.514,2.021,4.514,4.518
	c0-2.496,2.021-4.518,4.516-4.518C137.506,108.772,135.485,106.752,135.485,104.258z"/> <linearGradient id="SVGID_1_" gradientUnits="userSpaceOnUse" x1="120.9927" y1="66.7241" x2="135.4849" y2="66.7241"> <stop offset="0" style="stop-color:#F79D2A"/> <stop offset="1" style="stop-color:#FFCD2E"/> </linearGradient> <path fill="#fbb42c" d="M128.241,59.478c0,4.002-3.248,7.248-7.248,7.248c4,0,7.248,3.244,7.248,7.246
	c0-4.002,3.242-7.246,7.244-7.246C131.483,66.726,128.241,63.479,128.241,59.478z"/> <linearGradient id="SVGID_2_" gradientUnits="userSpaceOnUse" x1="35.9463" y1="6.3594" x2="44.0557" y2="6.3594"> <stop offset="0" style="stop-color:#F79D2A"/> <stop offset="1" style="stop-color:#FFCD2E"/> </linearGradient> <path fill="#faaf2c" d="M40,2.305c0,2.24-1.815,4.054-4.054,4.054c2.238,0,4.054,1.814,4.054,4.056
	c0-2.241,1.815-4.056,4.056-4.056C41.815,6.358,40,4.545,40,2.305z"/> <linearGradient id="SVGID_3_" gradientUnits="userSpaceOnUse" x1="0" y1="31.3745" x2="14.3633" y2="31.3745"> <stop offset="0" style="stop-color:#F79D2A"/> <stop offset="1" style="stop-color:#FFCD2E"/> </linearGradient> <path fill="#faaf2c" d="M7.181,24.192c0,3.968-3.217,7.181-7.181,7.181c3.964,0,7.181,3.215,7.181,7.184
	c0-3.969,3.215-7.184,7.183-7.184C10.396,31.373,7.181,28.16,7.181,24.192z"/> <linearGradient id="SVGID_4_" gradientUnits="userSpaceOnUse" x1="93.9321" y1="131.3442" x2="108.2954" y2="131.3442"> <stop offset="0" style="stop-color:#F79D2A"/> <stop offset="1" style="stop-color:#FFCD2E"/> </linearGradient> <path fill="#faaf2c" d="M101.114,124.163c0,3.969-3.219,7.182-7.182,7.182c3.963,0,7.182,3.215,7.182,7.182
	c0-3.967,3.215-7.182,7.182-7.182C104.329,131.344,101.114,128.131,101.114,124.163z"/> <g> <linearGradient id="SVGID_5_" gradientUnits="userSpaceOnUse" x1="47.8809" y1="58.0981" x2="92.6479" y2="58.0981"> <stop offset="0" style="stop-color:#fcd695"/> <stop offset="1" style="stop-color:##fcd695"/> </linearGradient> <path fill="#f8a02a" stroke="#515151" stroke-width="2" stroke-miterlimit="10" d="M92.45,82.727
		c0.445-3.342,0-5.535,0-5.535v-28.31c-0.676-0.204-1.375-0.345-2.115-0.345c-2.154,0-4.076,0.935-5.426,2.405V32.909
		c0-2.779-2.252-5.03-5.029-5.03c-1.512,0-2.852,0.681-3.773,1.735v-2.74c0-2.778-2.252-5.03-5.029-5.03
		c-2.777,0-5.028,2.252-5.028,5.03v3.196c-0.906-1.323-2.424-2.191-4.147-2.191c-2.779,0-5.03,2.251-5.03,5.03v6.663
		c-0.922-1.142-2.315-1.888-3.896-1.888c-2.779,0-5.029,2.252-5.029,5.03v34.477c-0.755,15.652,5.374,17.16,5.374,17.16h34.375
		c2.936-4.068,4.178-7.971,4.666-11.029h0.09V82.727z"/> <path fill="none" stroke="#515151" stroke-width="2" stroke-linecap="round" stroke-miterlimit="10" d="M92.588,83.323V48.882
		c-0.674-0.204-1.375-0.345-2.113-0.345c-4.088,0-7.396,3.312-7.396,7.396v12.994"/> <path fill="none" stroke="#515151" stroke-linecap="round" stroke-miterlimit="10" d="M67.488,94.352
		c-0.063-0.76-0.099-1.533-0.099-2.313c0-12.279,8.253-22.234,18.433-22.234"/> <line fill="none" stroke="#515151" stroke-width="2" stroke-linecap="round" stroke-miterlimit="10" x1="56.887" y1="38.094" x2="56.887" y2="60.13"/> <line fill="none" stroke="#515151" stroke-width="2" stroke-linecap="round" stroke-miterlimit="10" x1="66.145" y1="29.969" x2="66.145" y2="60.13"/> <line fill="none" stroke="#515151" stroke-width="2" stroke-linecap="round" stroke-miterlimit="10" x1="76.168" y1="29.073" x2="76.168" y2="60.13"/> <line fill="none" stroke="#515151" stroke-linecap="round" stroke-miterlimit="10" x1="80.083" y1="35.799" x2="76.168" y2="35.799"/> <line fill="none" stroke="#515151" stroke-linecap="round" stroke-miterlimit="10" x1="80.083" y1="47.869" x2="76.168" y2="47.869"/> <line fill="none" stroke="#515151" stroke-linecap="round" stroke-miterlimit="10" x1="70.057" y1="32.532" x2="66.145" y2="32.532"/> <line fill="none" stroke="#515151" stroke-linecap="round" stroke-miterlimit="10" x1="60.801" y1="37.685" x2="56.887" y2="37.685"/> <line fill="none" stroke="#515151" stroke-linecap="round" stroke-miterlimit="10" x1="60.801" y1="50.383" x2="56.887" y2="50.383"/> <line fill="none" stroke="#515151" stroke-linecap="round" stroke-miterlimit="10" x1="51.793" y1="47.869" x2="47.88" y2="47.869"/> <line fill="none" stroke="#515151" stroke-linecap="round" stroke-miterlimit="10" x1="51.793" y1="55.663" x2="47.88" y2="55.663"/> <line fill="none" stroke="#515151" stroke-linecap="round" stroke-miterlimit="10" x1="70.057" y1="46.329" x2="66.145" y2="46.329"/> <g> <g> <path fill="none" d="M81.204,59.16c-0.629,0.082-4.074,0.439-8.967,1.891c-2.45,0.718-5.284,1.77-8.242,3.195
				c-2.921,1.499-6.025,3.332-8.627,5.704c-2.697,2.279-4.768,4.994-6.267,7.561c-1.393,2.57-2.301,5.029-2.662,7.021
				c-0.562,2.07-0.505,3.609-0.593,4.74c-0.047,1.121-0.071,1.76-0.071,1.76l25.481-1.984c0,0,0.023-0.291,0.064-0.797
				c0.057-0.492-0.031-1.281,0.236-1.986c0.291-1.586,1.063-3.053,2.422-4.211c0.611-0.629,1.596-1.158,2.561-1.689
				c1.045-0.488,2.16-0.932,3.211-1.234c2.094-0.629,3.578-0.752,2.934-0.688L81.204,59.16z"/> </g> <g> <path fill="#FFFFFF" d="M72.793,70.151c0,0-0.313,0.119-0.865,0.328c-0.551,0.217-1.301,0.582-2.216,0.994
				c-1.769,0.904-4.111,2.213-5.957,3.92c-1.965,1.631-3.321,3.594-4.203,5.076c-0.466,0.736-0.642,1.396-0.86,1.84
				c-0.19,0.447-0.299,0.703-0.299,0.703l2.452,0.385c0,0,0.097-0.229,0.268-0.633c0.199-0.395,0.348-1,0.771-1.65
				c0.79-1.32,1.984-3.064,3.732-4.508c1.632-1.52,3.744-2.697,5.344-3.518c0.838-0.371,1.52-0.707,2.02-0.906
				c0.504-0.189,0.797-0.299,0.797-0.299L72.793,70.151z"/> </g> <path fill="#FFFFFF" d="M80.149,68.092l0.387,1.897c0,0-0.246,0.043-0.617,0.113c-0.371,0.078-0.861,0.188-1.357,0.293
			c-0.971,0.254-1.943,0.514-1.943,0.514l-0.73-1.816c0,0,1.055-0.283,2.111-0.555c0.533-0.115,1.068-0.232,1.471-0.319
			C79.877,68.144,80.149,68.092,80.149,68.092z"/> <path fill="#FFFFFF" d="M57.688,85.491l2.517,0.158c0,0-0.045,0.189-0.111,0.475s-0.175,0.666-0.167,1.053
			c-0.04,0.77-0.082,1.539-0.082,1.539l-2.548,0.104c0,0,0.047-0.83,0.092-1.662c-0.006-0.416,0.109-0.832,0.181-1.145
			C57.644,85.698,57.688,85.491,57.688,85.491z"/> </g> <g> <g> <path fill="none" d="M46.394,72.272c0.353,0.23,2.22,1.561,5.403,2.766c1.593,0.611,3.557,1.16,5.796,1.49
				c2.261,0.268,4.798,0.373,7.399-0.141c2.594-0.4,5.133-1.408,7.311-2.57c2.129-1.213,3.959-2.568,5.262-3.84
				c1.445-1.237,2.289-2.372,2.975-3.149c0.652-0.788,1.027-1.236,1.027-1.236l-13.442-10.31c0,0-0.174,0.2-0.482,0.545
				c-0.305,0.332-0.709,0.94-1.237,1.324c-1.038,1.013-2.245,1.717-3.558,1.925c-0.65,0.171-1.426,0.1-2.192,0.042
				c-0.782-0.133-1.572-0.325-2.251-0.591c-1.372-0.51-2.158-1.106-1.809-0.855L46.394,72.272z"/> </g> <g> <path fill="#FFFFFF" d="M56.684,68.212c0,0,0.221,0.061,0.604,0.163c0.389,0.098,0.959,0.178,1.632,0.304
				c1.369,0.165,3.243,0.298,5.101-0.084c1.873-0.27,3.641-1.063,4.905-1.727c0.644-0.315,1.103-0.717,1.46-0.93
				c0.343-0.238,0.541-0.372,0.541-0.372L69.96,64.16c0,0-0.178,0.119-0.489,0.332c-0.319,0.192-0.733,0.56-1.306,0.837
				c-1.13,0.587-2.694,1.296-4.357,1.532c-1.648,0.347-3.336,0.222-4.573,0.078c-0.616-0.118-1.134-0.19-1.489-0.277
				c-0.354-0.096-0.554-0.152-0.554-0.152L56.684,68.212z"/> </g> <path fill="#FFFFFF" d="M51.963,66.312l0.886-1.549c0,0,0.145,0.084,0.362,0.204c0.224,0.112,0.522,0.263,0.821,0.412
			c0.612,0.267,1.23,0.526,1.23,0.526l-0.674,1.646c0,0-0.67-0.279-1.335-0.573c-0.323-0.16-0.65-0.323-0.892-0.446
			C52.123,66.398,51.963,66.312,51.963,66.312z"/> <path fill="#FFFFFF" d="M72.67,64.103l-1.127-1.274c0,0,0.129-0.116,0.322-0.292c0.195-0.175,0.463-0.398,0.678-0.682
			c0.455-0.539,0.91-1.077,0.91-1.077l1.291,1.101c0,0-0.492,0.579-0.984,1.158c-0.232,0.303-0.523,0.551-0.738,0.742
			C72.811,63.974,72.67,64.103,72.67,64.103z"/> </g> <g> <g> <path fill="none" d="M75.958,56.919c0,0-1.557,0.781-3.895,1.952c-2.356,1.167-5.51,2.705-8.656,4.175
				c-3.14,1.468-6.294,2.869-8.506,3.736c-0.528,0.197-1.013,0.379-1.441,0.539c-0.354,0.116-0.663,0.217-0.917,0.3
				c-0.209,0.032-0.209,0.066-0.228,0.07l2.596,15.92c0,0,0.201-0.043,0.577-0.121c0.355-0.08,0.969-0.215,1.575-0.387
				c0.487-0.156,1.079-0.35,1.757-0.568c0.588-0.221,1.251-0.469,1.974-0.738c2.765-1.086,6.12-2.588,9.437-4.135
				c3.311-1.547,6.561-3.133,8.995-4.338c2.439-1.223,4.066-2.039,4.066-2.039L75.958,56.919z"/> </g> <g> <path fill="#FFFFFF" d="M73.395,66.313c0,0-3.439,1.693-6.91,3.313c-3.464,1.639-6.979,3.122-6.979,3.122l0.625,1.488
				c0,0,3.559-1.504,7.036-3.148c3.487-1.627,6.936-3.326,6.936-3.326L73.395,66.313z"/> </g> <polygon fill="#FFFFFF" points="78.206,63.908 78.932,65.35 76.18,66.724 75.463,65.279 		"/> <path fill="#FFFFFF" d="M57.399,73.588l0.585,1.504c0,0-0.729,0.273-1.46,0.547c-0.752,0.246-1.503,0.492-1.503,0.492
			l-0.451-1.549c0,0,0.707-0.232,1.413-0.465C56.691,73.854,57.399,73.588,57.399,73.588z"/> </g> </g> <g> <path fill="#FFFFFF" stroke="#FFFFFF" stroke-width="6" stroke-miterlimit="10" d="M40.578,86.956
		c-0.467,2.488-1.308,7.492-1.919,12.637c1.383-1.381,3.712-3.316,6.049-3.639c3.673-0.506,4.78,1.68,4.228,5.074
		c-0.463,2.828-2.397,9.473-0.083,8.984c1.324-0.268,3.202-2.992,4.026-5.656c0.213-0.625,2.126,0.301,1.933,0.754
		c-1.335,3.586-3.767,8.172-8.436,9.154c-4.216,0.879-5.224-1.492-5.233-4.041c0-2.17,0.785-6.658,0.933-7.443
		c0.226-1.137,0.028-1.961-1.124-1.674c-0.781,0.191-1.936,1.074-2.848,2.176c-0.546,4.371-1.031,8.266-1.377,11.629
		c-0.082,0.947-7.227,2.484-6.984,0.535c1.126-9.127,2.966-21.711,4.063-28.58C35.127,85.663,40.483,85.649,40.578,86.956z"/> <path fill="#FFFFFF" stroke="#FFFFFF" stroke-width="6" stroke-miterlimit="10" d="M69.32,100.221
		c-1.012,3.16-4.65,5.148-9.464,5.088c0.513,2.182,2.355,2.908,5.367,2.535c2.384-0.285,5.96-1.797,7.562-6.227
		c0.211-0.625,2.125,0.301,1.969,0.707c-2.441,6.373-6.16,9.012-11.256,9.67c-7.227,0.951-10.412-2.736-10.604-7.217
		c-0.256-5.875,3.879-10.441,9.941-11.189C68.273,92.924,70.62,96.684,69.32,100.221z M59.697,102.61
		c2.433-0.25,3.669-2.078,3.861-3.467c0.136-0.867-0.124-1.514-0.761-1.512C61.267,97.629,59.951,99.811,59.697,102.61z"/> <path fill="#FFFFFF" stroke="#FFFFFF" stroke-width="6" stroke-miterlimit="10" d="M88.977,86.717
		c-0.338,5.574-3.902,10.275-10.016,12.818c-0.373,4.09,0.736,6.275,3.586,5.969c1.924-0.223,4.867-1.393,6.592-6.18
		c0.182-0.535,2.01,0.402,1.891,0.76c-1.826,4.973-4.309,9.184-10.607,9.453c-6.508,0.301-8.039-5.271-7.473-13.514
		c0.432-6.141,2.357-12.23,5.977-14.982C83.161,77.823,89.401,79.899,88.977,86.717z M80.536,88.729
		c-0.438,2.059-1.061,4.951-1.328,7.029c1.877-1.193,3.4-4.338,4.004-6.76c0.613-2.637,0.563-5.18-0.48-5.035
		C81.854,84.083,81.122,86.182,80.536,88.729z"/> <path fill="#FFFFFF" stroke="#FFFFFF" stroke-width="6" stroke-miterlimit="10" d="M105.252,84.479
		c-0.338,5.574-3.902,10.273-10.016,12.816c-0.373,4.09,0.736,6.277,3.586,5.971c1.924-0.223,4.867-1.395,6.592-6.18
		c0.182-0.535,2.01,0.402,1.891,0.76c-1.826,4.971-4.309,9.184-10.607,9.453c-6.508,0.301-8.039-5.273-7.473-13.516
		c0.432-6.141,2.357-12.229,5.977-14.98C99.436,75.583,105.676,77.661,105.252,84.479z M96.811,86.489
		c-0.438,2.059-1.061,4.953-1.328,7.031c1.877-1.195,3.4-4.338,4.004-6.76c0.613-2.637,0.563-5.182-0.48-5.037
		C98.129,81.844,97.399,83.944,96.811,86.489z"/> <path fill="#FFFFFF" stroke="#FFFFFF" stroke-width="6" stroke-miterlimit="10" d="M122.52,99.03
		c1.996-0.021,4.143-1.719,5.184-4.967c0.213-0.625,2.119,0.26,1.934,0.754c-2.152,5.994-5.891,6.637-8.9,6.709
		c-1.852,1.998-4.365,3.195-7.162,3.58c-4.924,0.678-8.893-1.285-8.209-8.354c0.588-6.246,4.938-9.865,10.078-10.529
		C123.258,85.233,125.461,92.286,122.52,99.03z M112.278,95.672c-0.328,2.555-0.691,5.795,1.73,5.461
		c0.541-0.074,1.049-0.398,1.408-0.875c-0.84-1.158-0.162-3.037,1.252-3.273c0.656-3.58,0.471-7.082-1.609-6.754
		C113.561,90.479,112.674,92.686,112.278,95.672z"/> </g> <path fill="none" stroke="#434347" stroke-width="2" stroke-miterlimit="10" d="M127.704,94.063
	c-1.041,3.248-3.188,4.945-5.184,4.967c2.941-6.744,0.738-13.797-7.076-12.807c-5.141,0.664-9.49,4.283-10.078,10.529
	c-0.018,0.186-0.02,0.355-0.031,0.533c-1.732,4.613-4.615,5.762-6.512,5.98c-2.85,0.307-3.959-1.881-3.586-5.971
	c6.113-2.543,9.678-7.242,10.016-12.816c0.424-6.818-5.816-8.896-10.051-5.676c-3.619,2.752-5.545,8.84-5.977,14.98
	c-0.137,1.99-0.148,3.82,0.002,5.455c-0.033,0.025-0.074,0.043-0.088,0.086c-1.725,4.787-4.668,5.957-6.592,6.18
	c-2.85,0.307-3.959-1.879-3.586-5.969c6.113-2.543,9.678-7.244,10.016-12.818c0.424-6.818-5.816-8.895-10.051-5.676
	c-3.619,2.752-5.545,8.842-5.977,14.982c-0.137,1.979-0.146,3.799,0,5.426c-0.076,0.033-0.137,0.086-0.164,0.168
	c-1.602,4.43-5.178,5.941-7.562,6.227c-3.012,0.373-4.854-0.354-5.367-2.535c4.813,0.061,8.452-1.928,9.464-5.088
	c1.299-3.537-1.047-7.297-6.484-6.633c-5.908,0.729-9.974,5.088-9.94,10.748c-0.003,0.008-0.014,0.01-0.017,0.02
	c-0.824,2.664-2.702,5.389-4.026,5.656c-2.314,0.488-0.38-6.156,0.083-8.984c0.553-3.395-0.555-5.58-4.228-5.074
	c-2.337,0.322-4.666,2.258-6.049,3.639c0.611-5.145,1.452-10.148,1.919-12.637c-0.095-1.307-5.451-1.293-6.773-0.09
	c-1.097,6.869-2.937,19.453-4.063,28.58c-0.242,1.949,6.902,0.412,6.984-0.535c0.346-3.363,0.831-7.258,1.377-11.629
	c0.912-1.102,2.066-1.984,2.848-2.176c1.152-0.287,1.35,0.537,1.124,1.674c-0.147,0.785-0.933,5.273-0.933,7.443
	c0.01,2.549,1.018,4.92,5.233,4.041c3.513-0.738,5.759-3.518,7.224-6.375c1.305,2.904,4.453,4.822,9.898,4.105
	c4.354-0.563,7.7-2.58,10.104-7.125c1.004,3.078,3.094,4.84,6.82,4.668c5.125-0.221,7.721-3.047,9.496-6.771
	c1.02,3,3.105,4.703,6.779,4.533c4.723-0.201,7.301-2.621,9.064-5.914c1.133,3.289,4.213,4.215,7.813,3.721
	c2.797-0.385,5.311-1.582,7.162-3.58c3.01-0.072,6.748-0.715,8.9-6.709C129.823,94.323,127.917,93.438,127.704,94.063z
	 M96.811,86.489c0.588-2.545,1.318-4.645,2.195-4.766c1.043-0.145,1.094,2.4,0.48,5.037c-0.604,2.422-2.127,5.564-4.004,6.76
	C95.75,91.442,96.374,88.547,96.811,86.489z M80.536,88.729c0.586-2.547,1.318-4.646,2.195-4.766
	c1.043-0.145,1.094,2.398,0.48,5.035c-0.604,2.422-2.127,5.566-4.004,6.76C79.475,93.68,80.098,90.788,80.536,88.729z
	 M62.798,97.631c0.637-0.002,0.896,0.645,0.761,1.512c-0.192,1.389-1.429,3.217-3.861,3.467
	C59.951,99.811,61.267,97.629,62.798,97.631z M116.668,96.985c-1.414,0.236-2.092,2.115-1.252,3.273
	c-0.359,0.477-0.867,0.801-1.408,0.875c-2.422,0.334-2.059-2.906-1.73-5.461c0.396-2.986,1.283-5.193,2.781-5.441
	C117.139,89.903,117.325,93.405,116.668,96.985z"/> <linearGradient id="SVGID_6_" gradientUnits="userSpaceOnUse" x1="94.7114" y1="31.4126" x2="107.5171" y2="31.4126"> <stop offset="0" style="stop-color:#F79D2A"/> <stop offset="1" style="stop-color:#FFCD2E"/> </linearGradient> <path opacity="0.5" fill="#fcd695" stroke="#fcd695" stroke-width="4" stroke-linecap="round" stroke-miterlimit="10" d="
	M96.711,19.586c0,0,12.188,5.536,7.887,23.653"/> <linearGradient id="SVGID_7_" gradientUnits="userSpaceOnUse" x1="106.3384" y1="25.7578" x2="116.6577" y2="25.7578"> <stop offset="0" style="stop-color:#F79D2A"/> <stop offset="1" style="stop-color:#FFCD2E"/> </linearGradient> <path opacity="0.5" fill="#fcd695" stroke="#fcd695" stroke-width="4" stroke-linecap="round" stroke-miterlimit="10" d="
	M108.338,17.271c0,0,8.746,3.974,5.66,16.975"/> <linearGradient id="SVGID_8_" gradientUnits="userSpaceOnUse" x1="663.9712" y1="313.562" x2="676.7778" y2="313.562" gradientTransform="matrix(-0.999 -0.044 0.044 -0.999 681.6491 406.5872)"> <stop offset="0" style="stop-color:#F79D2A"/> <stop offset="1" style="stop-color:#FFCD2E"/> </linearGradient> <path opacity="0.5" fill="#fcd695" stroke="#fcd695" stroke-width="4" stroke-linecap="round" stroke-miterlimit="10" d="
	M29.621,75.852c0,0-11.934-6.068-6.838-23.979"/> <linearGradient id="SVGID_9_" gradientUnits="userSpaceOnUse" x1="675.5991" y1="307.9067" x2="685.9175" y2="307.9067" gradientTransform="matrix(-0.999 -0.044 0.044 -0.999 681.6491 406.5872)"> <stop offset="0" style="stop-color:#F79D2A"/> <stop offset="1" style="stop-color:#FFCD2E"/> </linearGradient> <path opacity="0.5" fill="#fcd695" stroke="#fcd695" stroke-width="4" stroke-linecap="round" stroke-miterlimit="10" d="
	M17.903,77.653c0,0-8.562-4.354-4.907-17.207"/> 
    </symbol>
    <symbol id="icon_sk" viewBox="0 0 30 30">
       <g> <path d="M22.5,30c-1.719,0-3.301-0.586-4.57-1.563c-0.938,0.195-1.934,0.313-2.93,0.313
		C7.402,28.75,1.25,22.598,1.25,15c0-0.996,0.117-1.992,0.313-2.93C0.586,10.801,0,9.219,0,7.5C0,3.359,3.359,0,7.5,0
		c1.719,0,3.301,0.586,4.57,1.563C13.008,1.367,14.004,1.25,15,1.25c7.598,0,13.75,6.152,13.75,13.75
		c0,0.996-0.117,1.993-0.313,2.93C29.414,19.2,30,20.782,30,22.5C30,26.641,26.641,30,22.5,30z M16.836,13.066l-2.031-0.469
		c-1.484-0.352-2.598-0.605-2.598-1.738c0-1.035,1.094-1.504,2.813-1.504c3.066,0,3.125,2.246,5.02,2.246
		c1.27,0,2.031-0.996,2.031-2.129c0-2.246-3.73-3.711-7.422-3.711c-3.379,0-7.305,1.465-7.305,5.43c0,3.281,2.188,4.453,5.039,5.137
		l2.852,0.703c1.738,0.43,2.813,0.625,2.813,1.875c0,0.996-1.113,1.758-2.832,1.758c-3.613,0-3.809-3.008-5.898-3.008
		c-1.367,0-1.973,0.977-1.973,2.051c0,2.402,3.672,4.355,8.066,4.355c3.672,0,7.5-1.836,7.5-5.801
		C22.91,14.863,19.609,13.691,16.836,13.066z"/> </g> 
    </symbol>
    <symbol id="icon_vk" viewBox="0 0 37.513 21.403">
       <g> <path d="M34.53,7.29c-3.789,5.039-4.199,4.57-1.074,7.48c3.008,2.793,3.633,4.141,3.73,4.316
		c0,0,1.25,2.188-1.387,2.207l-5,0.078c-1.074,0.215-2.5-0.762-2.5-0.762c-1.875-1.289-3.633-4.629-5-4.199
		c0,0-1.406,0.449-1.367,3.457c0.02,0.645-0.293,0.996-0.293,0.996s-0.352,0.371-1.035,0.43h-2.246
		c-4.941,0.313-9.297-4.238-9.297-4.238S4.296,12.134,0.116,2.31c-0.273-0.645,0.02-0.957,0.02-0.957s0.293-0.371,1.113-0.371
		l5.352-0.039C7.108,1.021,7.46,1.294,7.46,1.294s0.313,0.215,0.469,0.625c0.879,2.188,2.012,4.18,2.012,4.18
		c1.953,4.023,3.281,4.707,4.043,4.297c0,0,0.996-0.605,0.781-5.469c-0.078-1.758-0.566-2.559-0.566-2.559
		c-0.449-0.605-1.289-0.781-1.66-0.84c-0.293-0.039,0.195-0.742,0.84-1.055c0.957-0.469,2.656-0.488,4.668-0.469
		c1.582,0.02,2.031,0.117,2.637,0.254c1.855,0.449,1.23,2.168,1.23,6.309c0,1.328-0.254,3.184,0.703,3.789
		c0.41,0.273,1.426,0.039,3.926-4.219c0,0,1.172-2.031,2.09-4.395c0.156-0.43,0.488-0.605,0.488-0.605s0.313-0.176,0.742-0.117
		l5.625-0.039c1.699-0.215,1.973,0.566,1.973,0.566C37.753,2.349,36.835,4.224,34.53,7.29z"/> </g> 
    </symbol></svg>